<?xml version="1.0" standalone="no"?>
<!DOCTYPE svg PUBLIC "-//W3C//DTD SVG 20010904//EN"
 "http://www.w3.org/TR/2001/REC-SVG-20010904/DTD/svg10.dtd">
<svg version="1.0" xmlns="http://www.w3.org/2000/svg"
 width="512.000000pt" height="512.000000pt" viewBox="0 0 512.000000 512.000000"
 preserveAspectRatio="xMidYMid meet">

<g transform="translate(0.000000,512.000000) scale(0.100000,-0.100000)"
fill="#000000" stroke="none">
<path d="M3832 4329 c-209 -24 -402 -119 -555 -271 l-68 -68 -1344 0 -1344 0
-58 -21 c-72 -28 -144 -94 -180 -168 l-28 -56 0 -1375 0 -1375 28 -56 c32 -66
99 -132 165 -162 l47 -22 1870 -3 c2056 -2 1920 -6 2018 59 52 34 98 94 125
161 15 39 17 119 20 878 l3 835 61 60 c116 114 206 270 250 430 17 65 21 107
21 230 0 174 -17 255 -83 394 -55 115 -113 192 -212 287 -143 134 -324 219
-523 243 -99 12 -108 12 -213 0z m307 -160 c154 -39 312 -140 412 -262 58 -72
130 -213 155 -307 25 -90 25 -300 0 -390 -22 -81 -83 -211 -126 -269 l-32 -44
-559 559 -558 558 47 34 c188 135 431 179 661 121z m271 -1399 c-51 -43 -183
-106 -275 -131 -103 -29 -276 -31 -380 -4 -428 108 -686 530 -585 955 23 95
83 225 131 283 l32 39 556 -556 556 -557 -35 -29z m-1320 1016 c-52 -115 -71
-200 -77 -342 -4 -100 -2 -150 12 -215 59 -294 240 -528 509 -659 249 -121
529 -128 775 -18 35 15 68 28 72 28 5 0 9 -239 9 -531 0 -300 -4 -529 -9 -527
-5 2 -163 164 -351 362 -248 259 -355 364 -384 377 -57 26 -157 25 -210 -1
-23 -11 -178 -141 -345 -290 l-303 -270 -484 693 c-320 457 -502 709 -538 743
-118 112 -270 110 -384 -4 -20 -21 -248 -372 -506 -782 -258 -410 -473 -749
-477 -755 -6 -5 -8 443 -7 1061 l3 1070 27 41 c15 23 44 49 70 62 l43 21 1292
0 1292 0 -29 -64z m-1454 -722 c42 -20 28 -2 599 -819 258 -369 477 -680 488
-692 13 -15 32 -23 53 -23 27 0 75 39 363 295 183 162 340 299 351 305 10 5
37 10 58 10 46 0 29 16 546 -525 l295 -310 0 -110 c1 -60 -4 -130 -10 -155
-13 -59 -52 -108 -103 -131 -40 -18 -105 -19 -1881 -19 -1174 0 -1853 4 -1875
10 -45 12 -107 75 -120 121 -6 18 -10 93 -10 165 l0 131 525 832 c289 458 535
846 546 863 46 64 110 83 175 52z"/>
</g>
</svg>
